<svg width="78" height="78" viewBox="0 0 78 78" fill="none" xmlns="http://www.w3.org/2000/svg">
<path d="M16.8375 50.25C15.377 46.9489 14.6233 43.3786 14.625 39.7688C14.625 25.8825 25.5375 14.625 39 14.625C52.4625 14.625 63.375 25.8863 63.375 39.7725C63.3762 43.3811 62.6226 46.95 61.1625 50.25" stroke="black" stroke-width="3" stroke-linecap="round"/>
<path d="M39 1.5V5.25M76.5001 39H72.7501M5.25 39H1.5M65.5126 12.48L62.8613 15.1313M15.1388 15.135L12.4875 12.4838M48.4388 66.3975C52.2263 65.1713 53.7488 61.7025 54.1763 58.215C54.3038 57.1725 53.445 56.3063 52.395 56.3063H25.7888C25.5324 56.3022 25.278 56.3526 25.0425 56.4542C24.8071 56.5557 24.5958 56.7061 24.4228 56.8954C24.2498 57.0848 24.119 57.3086 24.039 57.5523C23.959 57.7959 23.9317 58.0538 23.9588 58.3088C24.3788 61.7888 25.4363 64.335 29.4488 66.3975M48.4388 66.3975H29.4488M48.4388 66.3975C47.985 73.6913 45.8775 76.5788 39.0263 76.4963C31.6988 76.6313 30.0113 73.0613 29.4488 66.3975" stroke="black" stroke-width="3" stroke-linecap="round" stroke-linejoin="round"/>
</svg>
