<svg width="60" height="79" viewBox="0 0 60 79" fill="none" xmlns="http://www.w3.org/2000/svg">
<path d="M46.8 12.4167H50.5333C54.6587 12.4167 58 14.0625 58 18.6667V27C58 29.2101 57.2133 31.3298 55.8131 32.8926C54.4128 34.4554 52.5136 35.3333 50.5333 35.3333H24.4C23.4099 35.3333 22.4603 35.7723 21.7601 36.5537C21.06 37.3351 20.6667 38.3949 20.6667 39.5V72.8333C20.6667 73.9384 21.06 74.9982 21.7601 75.7796C22.4603 76.561 23.4099 77 24.4 77H28.1333M46.8 12.4167V6.16667C46.8 5.0616 46.4067 4.00179 45.7065 3.22039C45.0064 2.43899 44.0568 2 43.0667 2H5.73333C4.74319 2 3.7936 2.43899 3.09347 3.22039C2.39333 4.00179 2 5.0616 2 6.16667V18.6667C2 19.7717 2.39333 20.8315 3.09347 21.6129C3.7936 22.3943 4.74319 22.8333 5.73333 22.8333H43.0667C44.0568 22.8333 45.0064 22.3943 45.7065 21.6129C46.4067 20.8315 46.8 19.7717 46.8 18.6667V12.4167Z" stroke="black" stroke-width="4" stroke-linecap="round" stroke-linejoin="round"/>
</svg>
